# xmcd
#
# Track frame offsets:
#	150
#	2566
#	17380
#	28485
#	45419
#	62006
#	83475
#	98375
#	123561
#	139407
#	167573
#
# Disc length: 2576 seconds
#
# Revision: 1
# Processed by: cddbd v1.5.2PL0 Copyright (c) Steve Scherf et al.
# Submitted via: audiograbber 1.83.01
#
DISCID=7c0a0e0b
DTITLE=Old Crow Medecine Show - Live at The Ryman
DYEAR=2019
DGENRE=Country
TTITLE0=Welcome to the Ryman (Live at The Ryman)
TTITLE1=Tell It to Me (Live at The Ryman)
TTITLE2=Shout Mountain Music (Live at The Ryman)
TTITLE3=Take Em Away (Live at The Ryman)
TTITLE4=Brushy Mountain Conjugal Trailer (Live at The Ryman)
TTITLE5=CC Rider (Live at The Ryman)
TTITLE6=Sixteen Tons (Live at The Ryman)
TTITLE7=Methamphetamine (Live at The Ryman)
TTITLE8=Louisiana Woman Mississippi Man (Live at The Ryman)
TTITLE9=Wagon Wheel (Live at The Ryman)
TTITLE10=Will the Circle Be Unbroken (Live at The Ryman)
EXTD=
EXTT0=
EXTT1=
EXTT2=
EXTT3=
EXTT4=
EXTT5=
EXTT6=
EXTT7=
EXTT8=
EXTT9=
EXTT10=
PLAYORDER=
